<svg width="1920" height="950" viewBox="0 0 1920 950" fill="none" xmlns="http://www.w3.org/2000/svg">
<mask id="mask0_4_13656" style="mask-type:alpha" maskUnits="userSpaceOnUse" x="0" y="0" width="1920" height="950">
<rect width="1920" height="950" fill="#C4C4C4"/>
</mask>
<g mask="url(#mask0_4_13656)">
<path d="M-30 170.819L625.08 717.639C749.319 824.381 819.596 682.058 819.596 682.058L990.268 303.779C1128.31 -29.5576 1247.53 303.779 1247.53 303.779L1350.44 528.499C1395.61 624.005 1411.93 640.859 1514.83 635.242H3588" stroke="#2B2FEA" stroke-width="2"/>
<path d="M-27.4912 410.52L572.371 -166.263C765.633 -346.039 824.615 -55.775 824.615 -55.775L1063.05 934.868C1103.21 1071.57 1203.61 1035.99 1265.1 934.868L1345.42 802.117C1409.42 700.784 1410.67 719.719 1514.83 719.719H3588" stroke="#001399" stroke-width="2"/>
<path d="M-27.4912 1088.43L658.962 264.453C770.652 133.365 812.066 324.376 812.066 324.376L1055.52 1058.46C1094.43 1172.7 1184.78 1161.46 1252.55 1067.83L1342.91 944.229C1406.91 842.897 1410.67 862.725 1514.83 862.725H3588" stroke="#001399" stroke-width="2"/>
<path d="M-28.7476 1122.13H677.785C754.337 1122.13 765.631 1103.41 813.319 1043.48L1005.33 783.181C1124.54 612.769 1157.17 650.221 1224.94 687.674L1373.02 775.69C1398.12 788.8 1415.69 792.545 1468.4 792.545H3586.74" stroke="#2B2FEA" stroke-width="2"/>
</g>
</svg>
